<?xml version="1.0" encoding="UTF-8"?>
<!DOCTYPE svg PUBLIC "-//W3C//DTD SVG 1.1//EN" "http://www.w3.org/Graphics/SVG/1.1/DTD/svg11.dtd">
<!-- Creator: CorelDRAW X8 -->
<svg xmlns="http://www.w3.org/2000/svg" xml:space="preserve" width="261px" height="300px" version="1.1" style="shape-rendering:geometricPrecision; text-rendering:geometricPrecision; image-rendering:optimizeQuality; fill-rule:evenodd; clip-rule:evenodd"
viewBox="0 0 261 300"
 xmlns:xlink="http://www.w3.org/1999/xlink"
 enable-background="new 0 0 512 512">
 <defs>
  <style type="text/css">
   <![CDATA[
    .str3 {stroke:black;stroke-width:0.337647}
    .str2 {stroke:black;stroke-width:0.67572}
    .str1 {stroke:black;stroke-width:0.798346}
    .str0 {stroke:black;stroke-width:4.22378;stroke-linecap:round}
    .fil0 {fill:none}
    .fil1 {fill:black}
    .fil2 {fill:black;fill-rule:nonzero}
   ]]>
  </style>
 </defs>
 <g id="Layer_x0020_1">
  <metadata id="CorelCorpID_0Corel-Layer"/>
  <polygon class="fil0 str0" points="131,4 194,40 258,77 258,150 258,223 194,260 131,296 67,260 3,223 3,150 3,77 67,40 "/>
  <path class="fil1" d="M90 140c0,1 -1,1 -1,2 -2,1 -1,-1 -4,1 -1,1 -5,6 -5,7 0,1 1,2 2,2 2,-1 3,-3 6,-4 0,-1 0,-1 1,-1 2,-4 -1,-3 2,-5 2,1 3,2 7,1 7,-1 10,-9 4,-14 -4,-5 -13,-2 -14,5 0,1 0,2 1,4 0,1 1,2 1,2l0 0zm13 -7c-2,-8 -14,-4 -13,3 2,9 15,6 13,-3z"/>
  <path class="fil1" d="M106 100c-3,-1 -3,-1 -5,-1 -8,-1 -14,7 -12,14 2,11 17,12 21,3 2,-5 1,-12 -4,-16l0 0zm0 11l-5 3 -4 3 0 -6 0 -7 4 3 5 4 0 0z"/>
  <path class="fil1" d="M49 174c-4,1 -9,5 -7,11 1,4 5,9 11,8 13,-4 9,-23 -4,-19l0 0zm-1 11c1,0 3,0 3,2 0,1 -2,2 -3,2 -2,0 -3,-1 -3,-2 0,-2 1,-2 3,-2zm-1 -8l0 1c1,1 7,1 8,8 1,2 0,2 3,2 -1,-5 -3,-9 -6,-11 -1,0 -4,-1 -5,0l0 0zm0 6c1,0 2,0 4,1 1,1 1,3 2,4l1 0c0,-4 -2,-8 -7,-8l0 3 0 0z"/>
  <path class="fil1" d="M73 117c-13,4 -8,22 3,19 5,-1 9,-5 8,-11 -1,-4 -5,-9 -11,-8l0 0zm0 8l-2 0 0 2 2 0c0,0 0,0 0,0l0 6 2 0 0 -6 3 0 0 -2 -3 0c0,-3 0,-2 3,-2l0 -2c-5,0 -5,0 -5,4l0 0z"/>
  <path class="fil1" d="M162 184c-4,1 -8,4 -7,10 1,4 6,9 12,8 11,-4 7,-22 -5,-18l0 0zm2 7c-3,0 -3,-2 -4,-3 -1,3 0,1 0,3 0,1 0,0 0,1 0,0 -1,-1 0,2 1,1 1,0 1,1l-2 1c4,2 9,0 10,-3 0,-1 0,-2 0,-2 0,-2 1,-2 1,-2 -1,-1 0,-1 -1,-1 -4,-1 -5,0 -5,3l0 0z"/>
  <path class="fil1" d="M48 150c0,1 7,4 8,4 1,0 10,-14 9,-15 -1,-1 -4,-4 -5,-5 -5,-2 -4,0 -9,9 0,1 -4,5 -3,7zm1 -2l7 4c1,-1 7,-11 8,-12l-8 -5c-1,1 -7,12 -7,13z"/>
  <path class="fil1" d="M81 185c1,6 12,12 21,7 1,-3 4,-5 5,-7 -4,-1 -11,-5 -14,-5 -1,0 -9,4 -12,5zm0 -1l12 -4 0 -13c-4,-1 -8,2 -10,4 -2,4 -3,8 -2,13l0 0zm13 -5c2,-1 7,-9 7,-10 -2,-1 -3,-2 -7,-2l0 12 0 0zm0 1c2,0 11,4 13,4 1,-4 1,-6 0,-9 -1,-1 -4,-5 -5,-6l-8 11z"/>
  <g id="_872931520">
   <path class="fil1" d="M143 61c-5,2 -7,4 -8,10 0,16 6,28 10,42 2,7 5,11 7,18 2,5 6,12 8,18 1,4 3,10 5,14 5,12 8,21 14,31 1,2 2,4 4,7 2,2 4,4 5,6 7,5 7,3 15,3 2,-5 9,-5 5,-21 -3,-14 -16,-49 -21,-63 -6,-13 -11,-26 -17,-38 -5,-10 -12,-33 -27,-27l0 0zm61 137c-1,-20 -14,-54 -21,-72 -4,-11 -24,-54 -30,-59 1,24 21,78 34,102l16 27c0,0 0,0 0,0l1 1c0,0 0,0 0,1l0 0z"/>
   <path class="fil1" d="M65 209l37 43 10 8c4,3 4,3 7,1 12,-4 16,-6 25,-12 -1,-9 -4,-11 -9,-13 -6,-4 -1,-7 -10,-12l-2 -2c-2,-8 -6,-16 -13,-17l-2 -9c-8,0 -38,9 -43,13l0 0z"/>
   <path class="fil1" d="M49 210c-1,-4 -3,-6 -4,-10 -5,-8 -11,-25 -13,-37 -3,2 -10,7 -11,9 -1,11 -1,5 -4,12 -1,4 -1,9 1,13 3,8 11,8 13,9 4,1 1,3 5,4l3 1c0,0 3,0 4,-1 2,0 4,0 6,0l0 0z"/>
  </g>
  <path class="fil1" d="M110 94l-2 3c4,0 7,-2 10,0 7,6 7,6 11,-1 2,-1 3,-2 3,-6 -1,-1 -14,-9 -15,-10 -3,-1 -5,4 -6,6 -4,7 -2,4 -1,8zm2 -5l13 8c0,0 0,0 0,0l0 1c0,0 0,0 -1,0l-13 -8c0,0 0,-1 0,-1l0 0c1,0 1,0 1,0zm3 -2l12 8c0,0 0,0 0,0l-1 0c0,1 0,1 0,1l-12 -8c0,0 0,-1 0,-1l0 0c0,0 0,0 1,0zm1 -3l12 7c0,0 0,2 0,2l0 0c0,0 0,0 -1,0l-12 -8c0,0 0,0 0,0l0 -1c1,0 1,0 1,0z"/>
  <path class="fil1" d="M117 183c1,-1 3,-6 3,-8 0,-4 -2,-6 -4,-6 -4,0 -6,3 -5,6 0,2 4,7 6,8l0 0zm-2 -11c0,0 1,-1 2,0 1,2 1,3 0,3 -1,1 -2,1 -2,0 -1,0 -1,-1 0,-3z"/>
  <path class="fil1" d="M126 174c-1,3 0,2 0,5 -1,5 -1,-1 -1,5 2,3 0,-1 2,3 2,2 0,1 2,5 4,0 3,-1 6,0 3,0 0,0 3,1 6,-2 0,0 4,-4 2,-1 3,-1 5,-2 0,-3 -1,-1 0,-4 0,-5 0,0 2,-6 -3,-2 -2,1 -4,-2 -1,-3 -1,-3 -2,-5 -2,-1 -2,0 -5,0 -4,-1 -1,-2 -4,-1 -5,0 0,0 -3,2 -3,3 -3,1 -5,3l0 0zm8 0c-11,5 -3,18 6,13 9,-3 3,-18 -6,-13zm12 -7c0,2 0,2 0,3 0,4 0,0 0,4 1,2 0,-2 1,2 2,1 0,1 2,2 2,0 1,0 3,0 2,0 0,0 2,1 4,-1 0,-1 2,-2 3,-1 3,0 4,-1 0,-2 0,-1 0,-4 0,-2 0,0 1,-3 -2,-1 -1,1 -2,-1 -1,-2 -1,-2 -1,-3 -3,0 -2,0 -4,0 -3,0 0,-2 -2,0 -3,0 0,0 -2,1 -3,1 -3,1 -4,1zm6 0c-7,3 -2,11 3,9 6,-2 3,-11 -3,-9z"/>
  <path class="fil1" d="M111 157c0,-4 1,0 1,-4l-7 0 0 8c2,0 1,0 3,-1 4,0 7,2 11,0 4,-2 6,-4 6,-10 -6,0 -1,1 -5,4 -2,3 -5,4 -9,3l0 0z"/>
  <path class="fil1" d="M103 151l4 0c2,-3 1,-6 4,-7 3,-1 5,-1 6,0 2,1 0,0 -1,4l9 0 0 -8c-4,0 -2,0 -5,1 -3,-1 -6,-2 -11,0 -3,2 -6,6 -6,10l0 0z"/>
  <path class="fil1" d="M123 194l-13 0c1,6 4,8 6,11 4,5 5,5 11,1l-4 -12z"/>
  <path class="fil1" d="M125 113c-15,3 -10,26 6,22 14,-3 10,-27 -6,-22zm2 12c-1,0 -1,0 -1,0 0,0 0,-1 0,-1 0,0 0,0 1,1zm-2 2c0,0 0,2 0,3 2,0 3,1 6,0 0,-1 0,-3 0,-3 2,0 3,0 5,-1 0,-2 0,-3 -2,-4 0,0 1,-1 0,-4 -4,-1 -5,3 -2,4 -3,1 -3,1 -3,3 0,0 0,0 -1,0 1,-1 2,-1 1,-3 -2,-1 -3,0 -3,1 -1,0 -1,0 -2,-1 0,0 1,-1 1,-4 -5,-1 -5,3 -4,4 -2,1 -2,2 -2,4 2,1 4,1 6,1l0 0z"/>
  <path class="fil2" d="M144 153c0,0 -1,1 -1,1 -1,0 -1,0 -2,0 0,0 -1,0 -3,0 0,-1 0,-1 -1,-2 0,0 0,-1 0,-2 0,-1 1,-2 1,-3 2,-2 3,-3 4,-3 0,-1 1,-1 2,-1 0,0 1,0 1,0 1,1 1,1 2,2l0 -2 3 0 -3 8c-1,0 -1,1 -1,1 0,0 0,0 0,0 0,1 1,1 1,1 0,0 2,-1 2,-1 1,0 2,-1 2,-2 1,-1 1,-2 1,-3 0,-2 0,-3 0,-4 -1,0 -1,-1 -2,-2 -1,0 -4,-1 -5,-1 -1,0 -3,1 -4,1 -3,1 -4,2 -4,3 -1,3 -2,4 -2,6 0,1 0,3 0,4 1,2 2,3 3,3 2,1 4,1 5,1 2,0 3,0 6,-1 1,0 2,-1 2,-3l2 0c0,2 -1,2 -2,3 -1,1 -2,1 -4,2 -1,0 -2,0 -4,0 -1,0 -3,0 -5,0 -1,-1 -2,-1 -3,-2 0,-1 -1,-1 -1,-3 -1,-2 -1,-3 0,-4 0,-2 0,-3 1,-6 1,-1 2,-3 5,-4 1,-1 3,-1 5,-1 2,0 4,0 5,1 2,1 2,2 3,3 0,1 1,2 0,4 0,2 -1,4 -2,5 -1,2 -4,2 -5,2 -1,0 -1,0 -1,0 0,0 -1,0 -1,-1 0,0 0,0 0,0l0 0zm-4 -3c0,1 0,2 0,2 1,1 1,1 2,1 0,0 0,0 1,0 0,-1 1,-1 1,-1 0,-1 1,-1 1,-2 0,-1 1,-1 1,-2 0,-1 0,-3 -1,-3 0,0 -1,-1 -1,-1 -1,0 -1,0 -1,1 -1,0 -1,0 -2,2 0,0 0,1 -1,1 0,1 0,2 0,2z"/>
  <path class="fil1 str1" d="M188 102l26 -29c1,0 2,0 2,0l0 1c1,0 1,1 0,1l-27 29c0,0 -1,0 -1,0l-1 -1c0,0 0,-1 1,-1z"/>
  <path class="fil1 str1" d="M198 120l41 -15c1,-1 2,0 2,0l0 1c0,0 0,1 -1,1l-42 15c0,1 -1,1 -1,0l0 -1c0,0 0,-1 1,-1z"/>
  <path class="fil1 str1" d="M203 143l40 6c0,0 1,0 1,1l0 0c-1,1 -1,1 -2,1l-39 -5c-1,0 -1,-1 -1,-1l0 -1c0,0 1,-1 1,-1z"/>
  <g id="_872930528">
   <path class="fil0 str2" d="M65 198c1,2 8,2 9,0 1,-2 1,-6 0,-9 -1,0 -4,0 -7,0 -2,0 -2,0 -2,4 0,1 0,4 0,5zm1 -9l7 0c1,0 2,0 2,2l0 2 -3 0c1,1 0,2 -1,3 -2,1 -4,-1 -2,-3l-4 0 0 -2c0,-2 1,-2 1,-2l0 0zm3 -3c-3,1 -4,1 -6,3 -1,2 -1,4 -1,6 1,11 18,9 17,-2 -1,-5 -6,-8 -10,-7z"/>
   <path class="fil1 str3" d="M72 189l-6 0c0,0 -1,2 -1,2l0 2 4 0c0,0 0,0 0,0 1,-1 2,-1 3,0l0 -4 0 0z"/>
   <path class="fil0 str2" d="M69 193c-3,1 0,4 2,3 3,-1 1,-5 -2,-3z"/>
  </g>
  <g id="_872928384">
   <path class="fil1" d="M81 168l-9 -12c-1,-2 -3,-2 -5,0l-7 6c-2,0 -2,3 0,4l9 11c1,1 2,1 3,1l9 -7c1,-1 1,-2 0,-3l0 0zm-8 1l7 1c0,0 0,0 0,0l-8 7c0,0 0,0 0,0l1 -8zm7 0c0,0 0,0 0,0l-10 -2 1 -10c0,0 0,0 0,0l9 12 0 0zm-19 -6c0,0 0,-1 0,-1l8 -5c0,0 0,0 0,0l0 6 -8 0zm0 2c0,0 0,0 0,0l8 0 0 3c0,0 0,0 0,0 0,0 0,0 0,0l3 1 -2 8c0,0 0,0 0,0l-9 -12 0 0z"/>
  </g>
  <path class="fil1" d="M47 165c0,0 1,3 1,4 -2,0 -4,0 -6,-1 1,-2 3,-3 5,-3l0 0zm1 -2c1,0 1,0 4,2 0,0 0,0 -1,2 0,0 0,0 0,0l-2 1c0,0 0,0 0,0 0,-1 -1,-3 -1,-5l0 0zm-6 4c-2,0 -3,-2 -3,-4 4,0 6,-1 7,-1 0,0 0,0 0,1 -1,0 -2,0 -3,2 0,0 0,0 0,1 0,0 -1,1 -1,1l0 0zm5 -6c4,-1 2,-1 4,-2 0,1 0,1 1,2 0,0 0,1 0,2 -1,-1 -3,-1 -5,-1 0,0 0,0 0,-1l0 0zm-7 0l-1 0c0,0 1,-1 1,-2 2,0 3,-1 3,-1 0,0 1,1 1,1 0,1 1,1 1,1 0,0 0,1 0,1 0,0 -1,0 -2,0 -1,0 -1,0 -3,0zm9 -2c0,0 -2,1 -3,1 0,0 0,-1 -1,-1 -1,-2 -1,-2 0,-2 1,0 3,1 4,2l0 0zm-4 11c2,0 3,0 6,-2l1 0c3,-5 0,-12 -6,-12 -8,0 -10,7 -6,12 2,1 4,2 5,2z"/>
 </g>
</svg>
