<?xml version="1.0" encoding="UTF-8"?>
<!DOCTYPE svg PUBLIC "-//W3C//DTD SVG 1.1//EN" "http://www.w3.org/Graphics/SVG/1.1/DTD/svg11.dtd">
<!-- Creator: CorelDRAW X8 -->
<svg xmlns="http://www.w3.org/2000/svg" xml:space="preserve" width="261px" height="300px" version="1.1" style="shape-rendering:geometricPrecision; text-rendering:geometricPrecision; image-rendering:optimizeQuality; fill-rule:evenodd; clip-rule:evenodd"
viewBox="0 0 261 300"
 xmlns:xlink="http://www.w3.org/1999/xlink">
 <defs>
  <style type="text/css">
   <![CDATA[
    .str0 {stroke:black;stroke-width:4.22378;stroke-linecap:round}
    .fil0 {fill:none}
    .fil1 {fill:black}
    .fil2 {fill:#231F20}
   ]]>
  </style>
 </defs>
 <g id="Layer_x0020_1">
  <metadata id="CorelCorpID_0Corel-Layer"/>
  <polygon class="fil0 str0" points="131,4 194,40 258,77 258,150 258,223 194,260 131,296 67,260 3,223 3,150 3,77 67,40 "/>
  <path class="fil1" d="M97 223c-4,0 -6,-2 -6,-7l0 0c0,-2 2,-5 6,-5l10 0c0,2 0,4 1,4 -1,4 -1,3 -1,7 -1,1 -6,1 -10,1zm-58 -155l0 126 66 0c0,-5 -2,-10 -2,-12 0,-3 -1,-5 -1,-7l-56 0 0 -101 164 0 0 70c3,0 5,0 6,0 0,-11 0,-1 1,-76l-178 0 0 0zm34 84l27 0c0,2 0,6 1,10l-28 0 0 -10zm-19 0l10 0 0 10 -10 0 0 -10zm19 -17l130 0 0 9c-12,0 -23,1 -32,1l-15 0 -83 0 0 -10zm-19 0l10 0 0 10 -10 0 0 -10zm19 -17l130 0 0 11 -130 0 0 -11zm-19 0l10 0 0 11 -10 0 0 -11zm19 -16l130 0 0 10 -130 0 0 -10zm-20 0l11 0 0 10 -11 0 0 -10zm20 -17l130 0 0 10 -130 0 0 -10zm-20 0l11 0 0 10 -11 0 0 -10z"/>
  <path class="fil2" d="M134 189c-5,0 -5,4 -3,6 7,1 42,0 52,0 3,0 4,0 5,-1 0,-2 0,-5 -3,-5l-51 0 0 0zm54 -5c6,0 7,-6 1,-6 -10,0 -57,-1 -63,0l0 5c2,1 2,1 3,1l59 0zm-62 -18c-7,0 -6,5 0,5l66 0c3,0 4,0 5,0 1,-3 0,-5 -3,-5l-68 0 0 0zm86 -12c1,5 -3,9 -5,16l-12 34c-3,7 -4,3 -14,3l-64 -1c-1,-3 -3,-19 -3,-23 -5,-30 -6,-27 6,-27l53 -2c10,0 26,-1 39,0zm36 -18c0,6 -4,8 -8,7 -2,-1 -2,-1 -5,0 -6,2 -4,1 -8,8l-22 58c0,2 11,19 4,19l-88 0c-2,0 -2,-3 -3,-4 3,-4 7,-3 19,-3 22,0 44,0 67,0 -1,-2 -3,-3 -3,-6 -1,-2 -2,-4 -3,-6 0,-2 3,-9 5,-12l20 -49c3,-9 2,-7 8,-9 1,-1 1,-1 2,-1 7,-3 2,-6 10,-6 2,0 5,2 5,4l0 0zm-115 110c-14,0 -12,-16 -1,-16 11,0 10,16 1,16zm67 -8c0,10 -15,12 -15,-1 0,-1 1,-4 2,-5 5,-4 13,0 13,6z"/>
 </g>
</svg>
