<?xml version="1.0" encoding="UTF-8"?>
<!DOCTYPE svg PUBLIC "-//W3C//DTD SVG 1.1//EN" "http://www.w3.org/Graphics/SVG/1.1/DTD/svg11.dtd">
<!-- Creator: CorelDRAW X8 -->
<svg xmlns="http://www.w3.org/2000/svg" xml:space="preserve" width="261px" height="300px" version="1.1" style="shape-rendering:geometricPrecision; text-rendering:geometricPrecision; image-rendering:optimizeQuality; fill-rule:evenodd; clip-rule:evenodd"
viewBox="0 0 261 300"
 xmlns:xlink="http://www.w3.org/1999/xlink">
 <defs>
  <style type="text/css">
   <![CDATA[
    .str0 {stroke:black;stroke-width:4.22378;stroke-linecap:round}
    .fil0 {fill:none}
    .fil1 {fill:#010100}
   ]]>
  </style>
 </defs>
 <g id="Layer_x0020_1">
  <metadata id="CorelCorpID_0Corel-Layer"/>
  <polygon class="fil0 str0" points="131,4 194,40 258,77 258,150 258,223 194,260 131,296 67,260 3,223 3,150 3,77 67,40 "/>
  <path class="fil1" d="M160 61l-61 61 -16 -16c-8,-8 -11,-3 -18,3l-23 24c-4,3 -4,5 -4,8 0,4 5,9 10,7 3,-1 16,-15 19,-18 3,-3 8,-7 9,-9 2,1 4,3 6,5l10 10c4,3 4,5 8,5 3,0 7,-5 10,-8l26 -26c2,-2 34,-33 35,-35 1,1 11,14 14,14l0 -39 -39 0 14 14 0 0z"/>
  <path class="fil1" d="M146 179c0,-13 10,-23 24,-23 11,0 22,10 22,22 0,7 -2,13 -6,17 -15,15 -40,5 -40,-16l0 0zm-8 0c0,7 3,14 7,19 2,4 6,7 10,8 9,5 22,5 30,-1 1,2 19,19 21,23 3,3 4,5 10,5 3,0 7,-3 7,-9 0,-3 -4,-5 -6,-8 -2,-3 -20,-20 -21,-21 5,-8 5,-20 1,-29 -1,-3 -1,-4 -2,-5 -6,-8 -16,-13 -26,-13 -17,0 -31,14 -31,31l0 0z"/>
  <polygon class="fil1" points="119,195 127,195 127,141 119,141 "/>
  <polygon class="fil1" points="73,195 80,195 80,141 73,141 "/>
  <polygon class="fil1" points="96,195 103,195 103,156 96,156 "/>
  <polygon class="fil1" points="49,195 57,195 57,156 49,156 "/>
  <path class="fil1" d="M165 141c2,0 3,0 4,0 1,0 3,0 4,0l0 -39 -8 0 0 39z"/>
  <path class="fil1" d="M142 152c1,-1 1,-2 2,-4 1,0 5,-3 6,-3l0 -28 -8 0 0 35z"/>
 </g>
</svg>
