<?xml version="1.0" encoding="UTF-8"?>
<!DOCTYPE svg PUBLIC "-//W3C//DTD SVG 1.1//EN" "http://www.w3.org/Graphics/SVG/1.1/DTD/svg11.dtd">
<!-- Creator: CorelDRAW X8 -->
<svg xmlns="http://www.w3.org/2000/svg" xml:space="preserve" width="261px" height="300px" version="1.1" style="shape-rendering:geometricPrecision; text-rendering:geometricPrecision; image-rendering:optimizeQuality; fill-rule:evenodd; clip-rule:evenodd"
viewBox="0 0 261 300"
 xmlns:xlink="http://www.w3.org/1999/xlink">
 <defs>
  <style type="text/css">
   <![CDATA[
    .str0 {stroke:black;stroke-width:4.22378;stroke-linecap:round}
    .fil0 {fill:none}
    .fil1 {fill:black}
    .fil2 {fill:#1A1A1A}
    .fil3 {fill:black;fill-rule:nonzero}
   ]]>
  </style>
 </defs>
 <g id="Layer_x0020_1">
  <metadata id="CorelCorpID_0Corel-Layer"/>
  <polygon class="fil0 str0" points="131,4 194,40 258,77 258,150 258,223 194,260 131,296 67,260 3,223 3,150 3,77 67,40 "/>
  <g id="_986879136">
   <g id="_981927744">
    <g>
     <path class="fil1" d="M171 236c0,4 -3,6 -6,6l-69 0c-3,0 -6,-2 -6,-6l0 0c0,-3 3,-7 6,-7l69 0c3,0 6,4 6,7l0 0z"/>
     <polygon class="fil1" points="126,216 135,216 135,229 126,229 "/>
     <path class="fil1" d="M35 79l0 137 191 0 0 -137 -191 0zm177 131c-2,0 -5,-2 -5,-5 0,-2 3,-4 5,-4 4,0 6,2 6,4 0,3 -2,5 -6,5zm-41 0c-2,0 -4,-2 -4,-5 0,-2 2,-4 4,-4 4,0 5,2 5,4 0,3 -1,5 -5,5zm23 0c-4,0 -6,-2 -6,-5 0,-2 2,-4 6,-4 2,0 4,2 4,4 0,3 -2,5 -4,5zm26 -15l-179 0 0 -110 179 0 0 110 0 0z"/>
    </g>
   </g>
   <path class="fil2" d="M75 106l111 0 0 -12 -111 0 0 12zm102 -8c0,0 4,0 4,0 1,0 1,1 1,1 0,0 0,0 -1,0 0,0 -4,0 -4,0 0,0 0,0 0,0 0,0 0,-1 0,-1zm0 2c0,0 4,0 4,0 1,0 1,0 1,0 0,1 0,1 -1,1 0,0 -4,0 -4,0 0,0 0,0 0,-1 0,0 0,0 0,0zm0 2c0,0 4,0 4,0 1,0 1,0 1,0 0,0 0,1 -1,1 0,0 -4,0 -4,0 0,0 0,-1 0,-1 0,0 0,0 0,0zm-6 2c0,0 -72,0 -72,0 -1,0 -1,-1 -1,-1 0,0 0,-1 0,-1 0,0 0,-3 0,-3 0,0 0,-1 0,-1 0,0 0,-1 1,-1 0,0 72,0 72,0 2,0 2,1 2,1 0,0 0,1 0,1 0,0 0,3 0,3 0,0 0,1 0,1 0,0 0,1 -2,1l0 0zm-79 -4c0,-1 0,-1 -1,-1 -1,0 -3,0 -3,1 0,1 2,2 3,2 1,0 1,-1 1,-2zm-6 0c0,-1 0,-1 -1,-1 -1,0 -1,0 -1,1 0,1 0,2 1,2 1,0 1,-1 1,-2zm-5 0c0,-1 0,-1 -1,-1 -1,0 -2,0 -2,1 0,1 1,2 2,2 1,0 1,-1 1,-2z"/>
   <g id="_850008400">
    <path class="fil3" d="M185 107l-110 0 0 -2 110 0 1 1 -1 1zm0 -2l1 0 0 1 -1 -1zm0 78l0 -77 1 0 0 77 -1 1 0 -1zm1 0l0 1 -1 0 1 -1zm-111 -1l110 0 0 2 -110 0 0 -1 0 -1zm0 2l0 0 0 -1 0 1zm1 -78l0 77 -1 0 0 -77 0 -1 1 1zm-1 0l0 -1 0 0 0 1z"/>
   </g>
   <path class="fil1" d="M180 178c0,0 -30,0 -30,0 0,0 0,0 0,0 0,0 0,-15 0,-15 0,0 0,0 0,0 0,0 30,0 30,0 0,0 0,0 0,0 0,0 0,15 0,15 0,0 0,0 0,0zm-34 0c0,0 -30,0 -30,0 0,0 0,0 0,0 0,0 0,-15 0,-15 0,0 0,0 0,0 0,0 30,0 30,0 0,0 0,0 0,0 0,0 0,15 0,15 0,0 0,0 0,0zm-35 0c0,0 -30,0 -30,0 0,0 0,0 0,0 0,0 0,-15 0,-15 0,0 0,0 0,0 0,0 30,0 30,0 0,0 0,0 0,0 0,0 0,15 0,15 0,0 0,0 0,0zm69 -20c0,0 -1,0 -1,0 0,0 -97,0 -97,0 0,0 -1,0 -1,0 0,0 0,0 0,0 0,0 0,-29 0,-29 0,0 0,-2 0,-2 0,0 1,0 1,0 0,0 97,0 97,0 0,0 1,0 1,0 0,0 0,2 0,2 0,0 0,29 0,29 0,0 0,0 0,0l0 0zm-1 -36c0,0 0,0 0,0 0,0 -97,0 -97,0 0,0 0,0 0,0 -1,0 -1,0 -1,0 0,0 0,-7 0,-7 0,0 0,-1 1,-1 0,0 0,0 0,0 0,0 97,0 97,0 0,0 0,0 0,0 1,0 1,1 1,1 0,0 0,7 0,7 0,0 0,0 -1,0l0 0z"/>
  </g>
 </g>
</svg>
