<?xml version="1.0" encoding="UTF-8"?>
<!DOCTYPE svg PUBLIC "-//W3C//DTD SVG 1.1//EN" "http://www.w3.org/Graphics/SVG/1.1/DTD/svg11.dtd">
<!-- Creator: CorelDRAW X8 -->
<svg xmlns="http://www.w3.org/2000/svg" xml:space="preserve" width="261px" height="300px" version="1.1" style="shape-rendering:geometricPrecision; text-rendering:geometricPrecision; image-rendering:optimizeQuality; fill-rule:evenodd; clip-rule:evenodd"
viewBox="0 0 261 300"
 xmlns:xlink="http://www.w3.org/1999/xlink">
 <defs>
  <style type="text/css">
   <![CDATA[
    .str0 {stroke:black;stroke-width:4.22381;stroke-linecap:round}
    .fil0 {fill:none}
    .fil1 {fill:black;fill-rule:nonzero}
   ]]>
  </style>
 </defs>
 <g id="Layer_x0020_1">
  <metadata id="CorelCorpID_0Corel-Layer"/>
  <g id="_771066512">
   <polygon class="fil0 str0" points="131,4 194,40 258,77 258,150 258,223 194,260 131,296 67,260 3,223 3,150 3,77 67,40 "/>
   <path class="fil1" d="M128 58c-2,0 -3,0 -5,0l1 2c-9,8 -17,17 -23,28 -4,6 -8,12 -11,20 1,0 1,0 2,0 13,4 24,6 36,6l0 -56 0 0 0 0zm95 60l-6 0c-3,-9 -8,-16 -12,-23 -9,7 -18,11 -29,14 1,4 2,6 3,9l-6 0c0,-2 -1,-4 -1,-7 0,1 -1,1 -2,1 -12,4 -25,6 -37,6l0 0 -5 0 0 0c-12,0 -25,-2 -37,-6 -1,0 -2,0 -2,-1 -1,3 -1,5 -1,7l-6 0c1,-3 2,-5 3,-9 -11,-3 -20,-7 -29,-14 -4,7 -9,14 -12,23l-6 0c8,-19 19,-35 35,-46 16,-11 36,-18 57,-18l0 0 0 0 0 0c22,0 42,7 58,18 16,11 27,27 35,46l0 0 0 0zm-103 -59c-17,1 -31,8 -44,17 -5,4 -12,10 -18,15 9,6 18,12 29,15 2,-7 5,-15 10,-20 6,-10 13,-19 23,-27l0 0zm83 32c-6,-5 -13,-11 -18,-15 -12,-9 -27,-16 -44,-17 10,8 17,17 23,27 5,5 8,13 10,20 11,-3 20,-9 29,-15l0 0zm-65 -33c-2,0 -3,0 -5,0l0 56c12,0 23,-2 36,-6 1,0 1,0 2,0 -3,-8 -7,-14 -11,-20 -6,-11 -14,-20 -23,-28l1 -2 0 0 0 0zm-100 124l6 0c3,9 8,16 12,23 9,-7 18,-11 29,-14 -1,-4 -2,-6 -3,-9l5 0c1,2 2,4 2,7 0,-1 1,-1 2,-1 12,-4 25,-6 37,-6l0 0 5 0 0 0c12,0 25,2 37,6 1,0 2,0 3,1 0,-3 0,-5 1,-7l5 0c-1,3 -2,5 -3,9 11,3 20,7 29,14 4,-7 9,-14 12,-23l6 0c-8,19 -19,34 -35,46 -17,12 -36,18 -57,18 -22,0 -41,-6 -58,-18 -16,-12 -27,-27 -35,-46l0 0 0 0zm20 27c6,5 13,11 18,16 12,8 27,14 42,16 -8,-8 -15,-16 -21,-26 -5,-6 -8,-13 -10,-21 -11,3 -20,9 -29,15l0 0zm66 33c1,0 3,0 4,0l0 -56c-12,0 -23,2 -36,6 -1,0 -1,0 -2,0 2,8 7,15 10,21 7,10 15,19 24,28l0 1 0 0zm9 0c1,0 3,0 4,0l0 -1c9,-9 17,-18 24,-28 3,-6 8,-13 10,-21 -1,0 -1,0 -2,0 -13,-4 -24,-6 -36,-6l0 56 0 0zm10 -1c15,-2 29,-8 42,-16 5,-5 12,-11 18,-16 -9,-6 -18,-12 -29,-15 -2,8 -5,15 -10,21 -6,10 -13,18 -21,26l0 0z"/>
   <path class="fil1" d="M34 175l-17 -50 9 0 10 29 2 9c0,0 1,-3 2,-9l9 -29 11 0 7 29 4 8 2 -8 10 -29 8 0 -17 50 -9 0 -9 -30 -1 -7 -12 37 -9 0 0 0 0 0zm75 0l-17 -50 11 0 8 29 4 9c0,0 1,-3 2,-9l9 -29 10 0 8 29 2 8 4 -8 9 -29 10 0 -18 50 -10 0 -8 -30 -2 -7 -12 37 -10 0 0 0 0 0zm77 0l-16 -50 9 0 9 29 2 9c0,0 1,-3 4,-9l9 -29 9 0 9 29 2 8 2 -8 10 -29 9 0 -17 50 -10 0 -9 -30 -1 -7 -11 37 -10 0 0 0 0 0z"/>
  </g>
 </g>
</svg>
